<svg xmlns="http://www.w3.org/2000/svg" viewBox="0 0 430 200">
  <rect x="5" y="6" width="420" height="188" rx="22" fill="#08251c"/>
  <rect x="10" y="10" width="410" height="180" rx="18" fill="#1b4635" stroke="#f4eedc" stroke-width="7"/>
  <g transform="translate(32,129.4)"><path fill="#f4eedc" d="M46.7 -29.57Q46.7 -22.85 45.23 -17.39Q43.76 -11.93 40.74 -8.06Q37.72 -4.2 33.05 -2.1Q28.39 0 22.01 0L5.29 0L5.29 -59.47L22.01 -59.47Q28.39 -59.47 33.05 -57.37Q37.72 -55.27 40.74 -51.37Q43.76 -47.46 45.23 -41.96Q46.7 -36.46 46.7 -29.57ZM33.18 -29.57Q33.18 -38.56 30.11 -43.13Q27.05 -47.71 22.18 -47.71L18.9 -47.71L18.9 -11.76L22.18 -11.76Q27.05 -11.76 30.11 -16.34Q33.18 -20.92 33.18 -29.57ZM55.52 0L55.52 -43.93L68.79 -43.93L68.79 0ZM69.38 -55.86Q69.38 -52.67 67.36 -50.44Q65.34 -48.22 62.15 -48.22Q58.96 -48.22 56.94 -50.44Q54.93 -52.67 54.93 -55.86Q54.93 -57.46 55.47 -58.84Q56.02 -60.23 56.94 -61.28Q57.87 -62.33 59.21 -62.96Q60.56 -63.59 62.15 -63.59Q63.75 -63.59 65.09 -62.96Q66.44 -62.33 67.36 -61.28Q68.28 -60.23 68.83 -58.84Q69.38 -57.46 69.38 -55.86ZM92.8 -43.93L92.8 -37.72L92.97 -37.72Q94.06 -40.91 96.84 -43.22Q99.61 -45.53 103.72 -45.53Q107.5 -45.53 109.77 -43.97Q112.04 -42.42 113.3 -39.82Q114.56 -37.21 114.98 -33.85Q115.4 -30.49 115.4 -26.88L115.4 0L102.21 0L102.21 -26.96Q102.21 -29.74 101.41 -31.84Q100.62 -33.94 98.26 -33.94Q95.83 -33.94 94.48 -31.71Q93.14 -29.48 93.14 -25.87L93.14 0L79.95 0L79.95 -43.93ZM136.39 -18.65Q136.39 -16.8 136.85 -15.16Q137.32 -13.52 138.07 -12.31Q138.83 -11.09 139.92 -10.37Q141.01 -9.66 142.36 -9.66Q144.54 -9.66 145.88 -11.09Q147.23 -12.52 147.98 -14.45L157.64 -8.99Q155.46 -4.12 151.55 -1.26Q147.65 1.6 141.85 1.6Q137.99 1.6 134.67 0.08Q131.35 -1.43 128.87 -4.41Q126.4 -7.39 125.01 -11.76Q123.62 -16.13 123.62 -21.84Q123.62 -27.22 124.93 -31.63Q126.23 -36.04 128.62 -39.1Q131.02 -42.17 134.29 -43.85Q137.57 -45.53 141.52 -45.53Q146.05 -45.53 149.24 -43.76Q152.44 -42 154.49 -38.93Q156.55 -35.87 157.48 -31.63Q158.4 -27.38 158.4 -22.34L158.4 -18.65ZM146.3 -27.22Q146.3 -30.74 145.21 -33.1Q144.12 -35.45 141.6 -35.45Q140.26 -35.45 139.29 -34.65Q138.32 -33.85 137.65 -32.63Q136.98 -31.42 136.64 -29.95Q136.31 -28.48 136.31 -27.22ZM167.04 -43.93L179.9 -43.93L179.9 -36.54L179.98 -36.54Q182.33 -45.28 188.8 -45.28Q189.47 -45.28 189.89 -45.23Q190.31 -45.19 190.9 -45.02L190.06 -31.84Q189.39 -32 188.76 -32.13Q188.13 -32.26 187.2 -32.26Q185.52 -32.26 184.26 -31.37Q183 -30.49 182.12 -29.06Q181.24 -27.64 180.78 -25.7Q180.32 -23.77 180.32 -21.76L180.32 0L167.04 0ZM230.29 -21.92Q230.29 -16.8 229.03 -12.47Q227.77 -8.15 225.46 -5.04Q223.15 -1.93 219.75 -0.17Q216.34 1.6 212.06 1.6Q207.78 1.6 204.42 -0.17Q201.06 -1.93 198.66 -5.04Q196.27 -8.15 195.01 -12.47Q193.75 -16.8 193.75 -21.92Q193.75 -27.05 195.01 -31.42Q196.27 -35.78 198.62 -38.89Q200.97 -42 204.37 -43.76Q207.78 -45.53 212.06 -45.53Q216.34 -45.53 219.75 -43.76Q223.15 -42 225.46 -38.89Q227.77 -35.78 229.03 -31.42Q230.29 -27.05 230.29 -21.92ZM217.69 -22.01Q217.69 -24.53 217.35 -26.67Q217.02 -28.81 216.34 -30.45Q215.67 -32.09 214.62 -33.01Q213.57 -33.94 212.06 -33.94Q210.63 -33.94 209.58 -33.01Q208.53 -32.09 207.86 -30.45Q207.19 -28.81 206.85 -26.67Q206.52 -24.53 206.52 -22.01Q206.52 -19.49 206.85 -17.35Q207.19 -15.2 207.86 -13.57Q208.53 -11.93 209.58 -11Q210.63 -10.08 212.06 -10.08Q213.57 -10.08 214.62 -11Q215.67 -11.93 216.34 -13.57Q217.02 -15.2 217.35 -17.35Q217.69 -19.49 217.69 -22.01Z"/></g>
  <g transform="translate(297,46.125) scale(1.05)"><path d="M37.31 0.19L50.39 0.30L50.39 17.68L50.96 17.59L52.62 19.30L55.85 19.09L56.39 20.80L60.98 21.34L61.60 22.07L62.52 21.22L63.95 21.59L64.57 22.56L65.63 22.69L66.22 23.90L67.50 22.70L69.93 24.07L70.78 23.71L71.42 24.82L73.23 22.76L73.79 23.77L75.42 23.72L76.99 24.31L77.58 25.08L79.00 23.66L80.57 23.16L81.32 23.62L83.04 22.67L83.46 23.14L85.38 23.11L85.83 22.31L87.78 23.11L88.56 24.10L91.46 24.94L92.27 25.73L93.72 25.22L94.80 25.55L95.55 39.44L97.32 41.31L97.47 43.26L99.76 46.76L100.00 48.66L98.63 51.97L98.95 53.18L98.46 54.14L99.15 55.82L97.50 59.10L98.23 59.94L92.99 61.49L91.51 60.88L91.18 59.42L90.21 60.50L89.47 60.29L89.15 61.58L89.98 62.08L90.19 63.73L86.56 67.87L81.92 70.40L81.44 70.03L80.04 70.67L79.98 70.13L78.06 70.58L77.12 69.49L76.57 69.75L78.70 71.99L77.22 72.77L75.78 72.37L75.61 73.99L73.89 75.71L72.15 78.85L71.05 82.11L70.18 81.89L69.98 83.07L70.89 82.75L70.51 85.12L69.90 85.23L69.89 86.56L70.65 87.28L70.93 89.97L71.83 90.88L72.84 94.10L70.38 95.10L69.34 93.94L64.92 93.68L62.74 92.24L61.10 92.11L59.86 90.95L58.18 90.57L57.03 89.45L56.26 86.75L54.81 85.14L54.53 81.02L53.52 79.60L52.69 79.46L51.35 78.18L50.91 76.56L48.06 73.87L47.25 71.17L45.46 68.27L45.13 66.50L42.12 63.29L40.59 62.59L39.42 60.62L33.99 60.19L32.26 59.47L31.86 60.39L29.98 60.64L28.53 62.47L27.60 65.43L27.13 65.47L26.01 67.20L24.72 67.21L22.84 65.78L18.09 63.41L17.19 62.20L15.36 61.00L14.15 58.40L14.17 56.10L12.94 54.18L12.71 52.56L11.92 51.49L9.01 49.83L4.97 45.07L3.10 44.03L1.90 41.61L0.00 39.98L0.26 39.11L27.14 40.29L28.46 0.00Z" fill="#D9B36A"/><polygon points="86.4,53.9 87.9,57.9 92.1,58.0 88.8,60.7 89.9,64.8 86.4,62.4 82.9,64.8 84.0,60.7 80.7,58.0 84.9,57.9" fill="#f4eedc" stroke-linejoin="round"/></g>
  <g transform="translate(325.8,90.225)"><path fill="#f4eedc" d="M9.29 0L9.29 -7.1L5.33 -7.1L5.33 0L1.51 0L1.51 -16.99L5.33 -16.99L5.33 -10.54L9.29 -10.54L9.29 -16.99L13.1 -16.99L13.1 0ZM33.38 0L29.3 0L27.22 -11.4L27.17 -11.4L25.1 0L21.02 0L17.83 -16.99L21.74 -16.99L23.5 -5.16L23.59 -5.16L25.44 -16.99L29.16 -16.99L31.08 -5.16L31.15 -5.16L32.88 -16.99L36.6 -16.99ZM47.57 -6.12L47.57 0L43.8 0L43.8 -6.12L39.5 -16.99L43.66 -16.99L45.7 -9.96L45.74 -9.96L47.81 -16.99L51.89 -16.99Z"/></g>
</svg>